<svg class="group h-10 transform-gpu overflow-visible lg:h-12" viewBox="0 0 186 49" fill="none" xmlns="http://www.w3.org/2000/svg"><g class="animate-spin-wind" transform-origin="24 24"><path d="M4.40039 5.18035L23.9998 25L33.7952 15.0945L21.5488 2.7018C16.6468 -2.25529 4.40039 5.18035 4.40039 5.18035Z" fill="#10B981"/><path d="M4.40072 44.8196L24.0001 25L14.2048 15.0945L1.94971 27.4785C-2.9523 32.4356 4.40072 44.8196 4.40072 44.8196Z" fill="#10B981"/><path d="M24.0001 25C19.521 16.9534 14.2048 15.0945 14.2048 15.0945L1.94971 27.4785C1.94971 27.4785 4.40072 25 24.0001 25Z" fill="#059669"/><path d="M43.5994 44.8196L24 25L14.2046 34.9055L26.451 47.2895C31.353 52.2465 43.5994 44.8109 43.5994 44.8109V44.8196Z" fill="#10B981"/><path d="M24 24.9999C16.0428 29.5294 14.2046 34.9054 14.2046 34.9054L26.451 47.2894C26.451 47.2894 24 44.8108 24 24.9912V24.9999Z" fill="#059669"/><path d="M43.5994 5.1803L24 24.9999L33.7954 34.9054L46.0418 22.5214C50.9438 17.5643 43.5908 5.1803 43.5908 5.1803H43.5994Z" fill="#10B981"/><path d="M24.0003 25C28.4794 33.0465 33.7957 34.9055 33.7957 34.9055L46.0421 22.5215C46.0421 22.5215 43.5911 25 23.9917 25H24.0003Z" fill="#059669"/><path d="M23.9998 25C31.957 20.4705 33.7952 15.0945 33.7952 15.0945L21.5488 2.70178C21.5488 2.70178 23.9998 5.18033 23.9998 25Z" fill="#059669"/></g><g><path d="M71.1123 38.0001L63.7231 11.8182H68.824L73.5413 31.0583H73.7842L78.8212 11.8182H83.4618L88.5115 31.0711H88.7416L93.4589 11.8182H98.5598L91.1706 38.0001H86.4916L81.2501 19.6293H81.0456L75.7913 38.0001H71.1123Z" fill="black"/><path d="M101.644 38.0001V18.3637H106.272V38.0001H101.644ZM103.971 15.5768C103.238 15.5768 102.607 15.3339 102.079 14.8481C101.55 14.3537 101.286 13.7614 101.286 13.0711C101.286 12.3722 101.55 11.7799 102.079 11.2941C102.607 10.7998 103.238 10.5526 103.971 10.5526C104.712 10.5526 105.343 10.7998 105.863 11.2941C106.391 11.7799 106.655 12.3722 106.655 13.0711C106.655 13.7614 106.391 14.3537 105.863 14.8481C105.343 15.3339 104.712 15.5768 103.971 15.5768Z" fill="black"/><path d="M115.659 26.4944V38.0001H111.031V18.3637H115.454V21.7003H115.684C116.136 20.6009 116.856 19.7273 117.845 19.0796C118.842 18.4319 120.073 18.108 121.539 18.108C122.894 18.108 124.075 18.3978 125.08 18.9773C126.095 19.5569 126.879 20.3964 127.433 21.4958C127.995 22.5952 128.272 23.929 128.264 25.4972V38.0001H123.636V26.2131C123.636 24.9006 123.295 23.8736 122.613 23.1322C121.94 22.3907 121.007 22.0199 119.813 22.0199C119.004 22.0199 118.284 22.1989 117.653 22.5569C117.031 22.9063 116.541 23.4134 116.183 24.0782C115.833 24.743 115.659 25.5484 115.659 26.4944Z" fill="black"/><path d="M140.255 38.3452C138.712 38.3452 137.332 37.9489 136.113 37.1563C134.894 36.3637 133.931 35.2131 133.224 33.7046C132.516 32.1961 132.163 30.3637 132.163 28.2074C132.163 26.0256 132.521 24.1847 133.237 22.6847C133.961 21.1762 134.937 20.0384 136.164 19.2714C137.391 18.4958 138.759 18.108 140.268 18.108C141.418 18.108 142.364 18.304 143.106 18.6961C143.847 19.0796 144.436 19.5441 144.87 20.0895C145.305 20.6265 145.641 21.1336 145.88 21.6109H146.072V11.8182H150.712V38.0001H146.161V34.9063H145.88C145.641 35.3836 145.296 35.8907 144.845 36.4276C144.393 36.956 143.796 37.4077 143.055 37.7827C142.313 38.1577 141.38 38.3452 140.255 38.3452ZM141.546 34.5484C142.526 34.5484 143.362 34.2841 144.052 33.7557C144.742 33.2188 145.266 32.4731 145.624 31.5185C145.982 30.564 146.161 29.4518 146.161 28.1819C146.161 26.912 145.982 25.8083 145.624 24.8708C145.275 23.9333 144.755 23.2046 144.065 22.6847C143.383 22.1648 142.543 21.9049 141.546 21.9049C140.515 21.9049 139.654 22.1734 138.964 22.7103C138.274 23.2472 137.754 23.9887 137.404 24.9347C137.055 25.8807 136.88 26.9631 136.88 28.1819C136.88 29.4091 137.055 30.5043 137.404 31.4674C137.762 32.4219 138.286 33.1762 138.977 33.7302C139.676 34.2756 140.532 34.5484 141.546 34.5484Z" fill="black"/></g><path d="M168.16 29.7889V18.411H172.788V38.0474H168.3V34.5573H168.096C167.653 35.6568 166.924 36.5559 165.91 37.2548C164.904 37.9536 163.664 38.3031 162.189 38.3031C160.903 38.3031 159.765 38.0175 158.776 37.4465C157.796 36.867 157.029 36.0275 156.475 34.9281C155.921 33.8201 155.644 32.482 155.644 30.9139V18.411H160.272V30.1979C160.272 31.4423 160.613 32.4309 161.295 33.1639C161.976 33.8968 162.871 34.2633 163.979 34.2633C164.661 34.2633 165.322 34.0971 165.961 33.7647C166.6 33.4323 167.124 32.938 167.533 32.2818C167.951 31.617 168.16 30.786 168.16 29.7889Z" fill="#10B981" class="translate-y-2 transition duration-[400ms] group-hover:translate-y-0"/><path d="M177.546 38.0474V18.411H182.174V38.0474H177.546Z" fill="#10B981" class="translate-y-2 transition delay-100 duration-[400ms] group-hover:translate-y-0"/><path d="M177.981 14.8954C178.509 15.3812 179.14 15.6241 179.873 15.6241C180.615 15.6241 181.245 15.3812 181.765 14.8954C182.294 14.4011 182.558 13.8088 182.558 13.1184C182.558 12.4196 182.294 11.8272 181.765 11.3415C181.245 10.8471 180.615 10.6 179.873 10.6C179.14 10.6 178.509 10.8471 177.981 11.3415C177.453 11.8272 177.188 12.4196 177.188 13.1184C177.188 13.8088 177.453 14.4011 177.981 14.8954Z" fill="#10B981" class="translate-y-2 transition delay-100 duration-[400ms] ease-[cubic-bezier(.25,-0.5,.75,1.5)] group-hover:translate-y-0"/></svg>